HIERARCHY
ROOT Hips
{
  OFFSET 0.168689 16.6858 -0.0197168
  CHANNELS 6 Xposition Yposition Zposition Zrotation Xrotation Yrotation
  JOINT LHipJoint
  {
    OFFSET 0 0 0
    CHANNELS 6 Xposition Yposition Zposition Zrotation Xrotation Yrotation
    JOINT LeftUpLeg
    {
      OFFSET 1.36306 -1.79463 0.83929
      CHANNELS 6 Xposition Yposition Zposition Zrotation Xrotation Yrotation
      JOINT LeftLeg
      {
        OFFSET 2.44811 -6.72613 0
        CHANNELS 6 Xposition Yposition Zposition Zrotation Xrotation Yrotation
        JOINT LeftFoot
        {
          OFFSET 2.5622 -7.03959 0
          CHANNELS 6 Xposition Yposition Zposition Zrotation Xrotation Yrotation
          JOINT LeftToeBase
          {
            OFFSET 0.15764 -0.43311 2.32255
            CHANNELS 6 Xposition Yposition Zposition Zrotation Xrotation Yrotation
            End Site
            {
              OFFSET 0 0 0
            }
          }
        }
      }
    }
  }
  JOINT RHipJoint
  {
    OFFSET 0 0 0
    CHANNELS 6 Xposition Yposition Zposition Zrotation Xrotation Yrotation
    JOINT RightUpLeg
    {
      OFFSET -1.30552 -1.79463 0.83929
      CHANNELS 6 Xposition Yposition Zposition Zrotation Xrotation Yrotation
      JOINT RightLeg
      {
        OFFSET -2.54253 -6.98555 0
        CHANNELS 6 Xposition Yposition Zposition Zrotation Xrotation Yrotation
        JOINT RightFoot
        {
          OFFSET -2.56826 -7.05623 0
          CHANNELS 6 Xposition Yposition Zposition Zrotation Xrotation Yrotation
          JOINT RightToeBase
          {
            OFFSET -0.16473 -0.45259 2.36315
            CHANNELS 6 Xposition Yposition Zposition Zrotation Xrotation Yrotation
            End Site
            {
              OFFSET 0 0 0
            }
          }
        }
      }
    }
  }
  JOINT LowerBack
  {
    OFFSET 0 0 0
    CHANNELS 6 Xposition Yposition Zposition Zrotation Xrotation Yrotation
    JOINT Spine
    {
      OFFSET 0.02827 2.03559 -0.19338
      CHANNELS 6 Xposition Yposition Zposition Zrotation Xrotation Yrotation
      JOINT Spine1
      {
        OFFSET 0.05672 2.04885 -0.04275
        CHANNELS 6 Xposition Yposition Zposition Zrotation Xrotation Yrotation
        JOINT Neck
        {
          OFFSET 0 0 0
          CHANNELS 6 Xposition Yposition Zposition Zrotation Xrotation Yrotation
          JOINT Neck1
          {
            OFFSET -0.05417 1.74624 0.17202
            CHANNELS 6 Xposition Yposition Zposition Zrotation Xrotation Yrotation
            JOINT Head
            {
              OFFSET 0.10407 1.76136 -0.12397
              CHANNELS 6 Xposition Yposition Zposition Zrotation Xrotation Yrotation
              End Site
              {
                OFFSET 0 0 0
              }
            }
          }
        }
        JOINT LeftShoulder
        {
          OFFSET 0 0 0
          CHANNELS 6 Xposition Yposition Zposition Zrotation Xrotation Yrotation
          JOINT LeftArm
          {
            OFFSET 3.36241 1.20089 -0.31121
            CHANNELS 6 Xposition Yposition Zposition Zrotation Xrotation Yrotation
            JOINT LeftForeArm
            {
              OFFSET 4.983 0 0
              CHANNELS 6 Xposition Yposition Zposition Zrotation Xrotation Yrotation
              JOINT LeftHand
              {
                OFFSET 3.48356 0 0
                CHANNELS 6 Xposition Yposition Zposition Zrotation Xrotation Yrotation
                JOINT LeftFingerBase
                {
                  OFFSET 0 0 0
                  CHANNELS 6 Xposition Yposition Zposition Zrotation Xrotation Yrotation
                  JOINT LeftHandIndex1
                  {
                    OFFSET 0.71526 0 0
                    CHANNELS 6 Xposition Yposition Zposition Zrotation Xrotation Yrotation
                    End Site
                    {
                      OFFSET 0 0 0
                    }
                  }
                }
                JOINT LThumb
                {
                  OFFSET 0 0 0
                  CHANNELS 6 Xposition Yposition Zposition Zrotation Xrotation Yrotation
                  End Site
                  {
                    OFFSET 0 0 0
                  }
                }
              }
            }
          }
        }
        JOINT RightShoulder
        {
          OFFSET 0 0 0
          CHANNELS 6 Xposition Yposition Zposition Zrotation Xrotation Yrotation
          JOINT RightArm
          {
            OFFSET -3.1366 1.37405 -0.40465
            CHANNELS 6 Xposition Yposition Zposition Zrotation Xrotation Yrotation
            JOINT RightForeArm
            {
              OFFSET -5.2419 0 0
              CHANNELS 6 Xposition Yposition Zposition Zrotation Xrotation Yrotation
              JOINT RightHand
              {
                OFFSET -3.44417 0 0
                CHANNELS 6 Xposition Yposition Zposition Zrotation Xrotation Yrotation
                JOINT RightFingerBase
                {
                  OFFSET 0 0 0
                  CHANNELS 6 Xposition Yposition Zposition Zrotation Xrotation Yrotation
                  JOINT RightHandIndex1
                  {
                    OFFSET -0.62253 0 0
                    CHANNELS 6 Xposition Yposition Zposition Zrotation Xrotation Yrotation
                    End Site
                    {
                      OFFSET 0 0 0
                    }
                  }
                }
                JOINT RThumb
                {
                  OFFSET 0 0 0
                  CHANNELS 6 Xposition Yposition Zposition Zrotation Xrotation Yrotation
                  End Site
                  {
                    OFFSET 0 0 0
                  }
                }
              }
            }
          }
        }
      }
    }
  }
}
MOTION
Frames:	4
Frame Time:	0.0416667
1.55905 16.6231 0.0123547 -1.69921 10.3816 3.15754 0 0 0 -0.299681 5.35791 18.0368 1.36306 -1.79463 0.83929 -28.321 -50.7702 -0.901442 2.44811 -6.72613 0 11.5233 43.5364 5.31232 2.5622 -7.03959 4.44089e-016 3.74428 -18.0112 -9.65122 0.15764 -0.43311 2.32255 -1.59028e-015 -1.59028e-015 6.36111e-015 0 0 0 -8.85582 0.425549 -20.6242 -1.30552 -1.79463 0.83929 46.2357 -29.3477 24.021 -2.54253 -6.98555 0 -9.49832 54.6675 -13.9675 -2.56826 -7.05623 6.10623e-016 9.87159 -1.82791 7.16397 -0.16473 -0.45259 2.36315 -0.00601129 -0.0595857 0.0200564 0 0 0 -1.93281 -2.12354 0.12108 0.02827 2.03559 -0.19338 11.0809 27.8785 0.0762124 0.05672 2.04885 -0.04275 -3.94739 -3.87488 1.07478 0 0 0 -1.34374 -9.52655 -0.171285 -0.05417 1.74624 0.17202 2.15772 27.2908 -1.3928 0.10407 1.76136 -0.12397 4.23944 -10.8848 -0.0382079 0 0 0 16.3778 0.389782 25.6379 3.36241 1.20089 -0.31121 -89.8332 2.2865 -15.2426 4.983 1.77636e-015 0 -11.318 7.75004 -12.7499 3.48356 -1.77636e-015 0 -14.6611 1.90901 -6.77581 0 0 0 -0.121028 -1.13371e-006 -1.14814 0.71526 0 -8.88178e-016 -1.78906e-015 1.59028e-015 -0 0 0 0 -1.19271e-015 0 2.38542e-015 0 0 0 -26.016 -1.25105 -30.1934 -3.1366 1.37405 -0.40465 105.9 6.03147 14.4645 -5.2419 0 -1.11022e-016 7.93249 5.20978 5.64677 -3.44417 4.44089e-016 0 12.7897 3.24148 11.7 0 0 0 0.388195 -3.8339e-006 2.4941 -0.62253 -3.33067e-016 8.88178e-016 -4.17485e-006 2.99803e-006 3.04112e-006 0 0 0 -2.43511e-015 7.95139e-016 1.59028e-015 
1.57198 16.6504 -0.00296787 -1.73274 10.4052 3.08821 0 0 0 -0.299681 5.35791 18.0368 1.36306 -1.79463 0.83929 -28.1865 -50.5396 -0.63396 2.44811 -6.72613 0 11.3742 43.0595 5.18044 2.5622 -7.03959 0 3.84515 -18.5264 -9.80547 0.15764 -0.43311 2.32255 1.59028e-015 1.59028e-015 -6.36111e-015 0 0 0 -8.85582 0.425549 -20.6242 -1.30552 -1.79463 0.83929 46.1799 -29.2409 23.9209 -2.54253 -6.98555 -8.88178e-016 -9.63114 54.2429 -13.6587 -2.56826 -7.05623 1.11022e-016 9.8454 -1.54842 7.02977 -0.16473 -0.45259 2.36315 -0.00611532 -0.0605579 0.020235 0 0 0 -1.93281 -2.12354 0.12108 0.02827 2.03559 -0.19338 11.3182 28.3517 0.0610804 0.05672 2.04885 -0.04275 -3.98875 -3.81128 1.10449 0 0 0 -1.32168 -9.38998 -0.160318 -0.05417 1.74624 0.17202 2.17906 27.4274 -1.39223 0.10407 1.76136 -0.12397 4.22633 -10.988 0.0171191 0 0 0 16.1114 0.556946 25.5942 3.36241 1.20089 -0.31121 -89.3828 2.64769 -15.6496 4.983 0 4.44089e-016 -11.9935 7.60382 -14.5522 3.48356 -1.77636e-015 -2.22045e-016 -14.4525 1.43101 -5.52754 0 0 0 -0.121028 -1.13371e-006 -1.14814 0.71526 0 -4.44089e-016 -1.39149e-015 1.59028e-015 4.77083e-015 0 0 0 -3.97569e-016 1.59028e-015 7.95139e-016 0 0 0 -26.0028 -1.13065 -29.8747 -3.1366 1.37405 -0.40465 105.77 5.95227 14.4824 -5.2419 8.88178e-016 2.22045e-016 7.95362 4.86494 5.74244 -3.44417 0 0 12.5663 3.22155 11.679 0 0 0 0.388195 -3.8339e-006 2.4941 -0.62253 3.88578e-016 0 -4.17485e-006 2.99803e-006 3.04112e-006 0 0 0 9.93923e-017 -3.97569e-016 1.59028e-015 
1.58268 16.6824 -0.00374529 -1.77532 10.3828 2.96987 0 0 0 -0.299681 5.35791 18.0368 1.36306 -1.79463 0.83929 -27.8836 -50.193 -0.234857 2.44811 -6.72613 1.77636e-015 11.2211 42.5058 5.07205 2.5622 -7.03959 0 3.87432 -19.0631 -9.98184 0.15764 -0.43311 2.32255 3.18055e-015 -1.59028e-015 -0 0 0 0 -8.85582 0.425549 -20.6242 -1.30552 -1.79463 0.83929 46.0598 -29.0014 23.715 -2.54253 -6.98555 0 -9.77605 53.7424 -13.2828 -2.56826 -7.05623 2.22045e-016 9.79658 -1.29519 6.90619 -0.16473 -0.45259 2.36315 -0.00621805 -0.0615249 0.0203783 0 0 0 -1.93281 -2.12354 0.12108 0.02827 2.03559 -0.19338 11.5033 28.5782 0.046121 0.05672 2.04885 -0.04275 -4.00693 -3.80282 1.11017 0 0 0 -1.27588 -9.2563 -0.139075 -0.05417 1.74624 0.17202 2.22022 27.5617 -1.38355 0.10407 1.76136 -0.12397 4.1754 -10.7329 0.108732 0 0 0 15.9305 0.586856 25.5724 3.36241 1.20089 -0.31121 -89.8717 2.70487 -17.182 4.983 0 0 -11.2093 7.41234 -12.3157 3.48356 -1.77636e-015 0 -15.0045 1.84229 -6.56144 0 0 0 -0.121028 -1.13371e-006 -1.14814 0.71526 -1.77636e-015 4.44089e-016 -7.95139e-016 0 -0 0 0 0 -1.59028e-015 -1.59028e-015 -1.59028e-015 0 0 0 -26.0031 -1.16012 -29.6185 -3.1366 1.37405 -0.40465 105.685 5.79383 14.2942 -5.2419 -8.88178e-016 -4.44089e-016 7.981 4.41692 5.8667 -3.44417 0 0 12.4425 3.21881 11.6877 0 0 0 0.388195 -3.8339e-006 2.4941 -0.62253 5.55112e-017 0 -4.17485e-006 2.99803e-006 3.04112e-006 0 0 0 -9.93923e-017 3.97569e-016 -1.59028e-015 
1.59146 16.7185 0.000588905 -1.82794 10.3157 2.77262 0 0 0 -0.299681 5.35791 18.0368 1.36306 -1.79463 0.83929 -27.4359 -49.7642 0.281273 2.44811 -6.72613 1.77636e-015 11.0668 41.8621 4.99823 2.5622 -7.03959 -4.44089e-016 3.85322 -19.576 -10.1621 0.15764 -0.43311 2.32255 7.95139e-016 3.18055e-015 -3.18055e-015 0 0 0 -8.85582 0.425549 -20.6242 -1.30552 -1.79463 0.83929 45.922 -28.6694 23.4449 -2.54253 -6.98555 0 -9.93463 53.1864 -12.817 -2.56826 -7.05623 -7.21645e-016 9.70648 -1.03127 6.77473 -0.16473 -0.45259 2.36315 -0.00631951 -0.0624939 0.0204886 0 0 0 -1.93281 -2.12354 0.12108 0.02827 2.03559 -0.19338 11.5905 28.4361 0.0154679 0.05672 2.04885 -0.04275 -3.97194 -3.83748 1.06395 0 0 0 -1.18599 -9.13635 -0.104292 -0.05417 1.74624 0.17202 2.30169 27.6825 -1.36766 0.10407 1.76136 -0.12397 4.01948 -10.1606 0.267289 0 0 0 15.8843 0.477618 25.5066 3.36241 1.20089 -0.31121 -91.0128 2.56431 -19.4201 4.983 0 4.44089e-016 -9.47857 7.28231 -7.18577 3.48356 -1.77636e-015 0 -15.9168 2.8611 -9.0648 0 0 0 -0.121028 -1.13371e-006 -1.14814 0.71526 8.88178e-016 0 -0 -1.59028e-015 -0 0 0 0 -0 0 1.59028e-015 0 0 0 -26.0096 -1.31397 -29.4669 -3.1366 1.37405 -0.40465 105.642 5.64375 14.0665 -5.2419 8.88178e-016 -6.66134e-016 7.99865 4.13716 5.94451 -3.44417 4.44089e-016 0 12.3931 3.11039 11.427 0 0 0 0.388195 -3.8339e-006 2.4941 -0.62253 -2.22045e-016 0 -4.17485e-006 2.99803e-006 3.04112e-006 0 0 0 9.93923e-017 7.95139e-016 -0 
